<svg width="40" height="40" viewBox="0 0 40 40" fill="none" xmlns="http://www.w3.org/2000/svg">
<circle cx="20" cy="20" r="20" fill="#4C75A3"/>
<g clip-path="url(#clip0_37_663)">
<path d="M29.1305 23.2364C28.695 22.7137 28.2002 22.2452 27.7216 21.7922C27.5515 21.631 27.3755 21.4644 27.2059 21.2988C26.719 20.8227 26.7013 20.6439 27.0868 20.1031C27.3535 19.7303 27.6363 19.3571 27.9098 18.9961C28.1578 18.6686 28.4144 18.33 28.6602 17.9902L28.7107 17.9203C29.1806 17.2701 29.6666 16.5978 29.9252 15.7867C29.9924 15.5727 30.0629 15.2578 29.9017 14.9945C29.7405 14.7315 29.428 14.6512 29.2068 14.6137C29.0974 14.5951 28.9888 14.5926 28.888 14.5926L25.8106 14.5904L25.7852 14.5902C25.3199 14.5902 25.0063 14.8095 24.8267 15.2606C24.6551 15.6916 24.4667 16.1507 24.2517 16.5871C23.8237 17.4562 23.2803 18.4572 22.4939 19.292L22.4606 19.3275C22.3678 19.4273 22.2626 19.5404 22.1857 19.5404C22.1739 19.5404 22.161 19.5381 22.1465 19.5335C21.9836 19.4701 21.8743 19.0757 21.8792 18.8923C21.8793 18.8898 21.8794 18.8872 21.8794 18.8847L21.8772 15.3279C21.8772 15.3155 21.8763 15.3033 21.8747 15.2911C21.7964 14.7129 21.623 14.353 20.9678 14.2247C20.9504 14.2212 20.9326 14.2195 20.9149 14.2195H17.715C17.1937 14.2195 16.9065 14.4314 16.6364 14.7485C16.5635 14.8333 16.4118 15.0098 16.487 15.2239C16.5633 15.4412 16.811 15.4876 16.8916 15.5027C17.292 15.5789 17.5176 15.8238 17.5815 16.2516C17.6931 16.9946 17.7068 17.7876 17.6247 18.7473C17.6018 19.014 17.5565 19.22 17.4818 19.396C17.4645 19.4371 17.403 19.5711 17.3403 19.5712C17.3204 19.5712 17.2627 19.5634 17.1578 19.491C16.9095 19.321 16.7279 19.0783 16.5162 18.7786C15.7959 17.7606 15.1914 16.6392 14.6679 15.3496C14.4737 14.8748 14.1111 14.609 13.6463 14.6012C13.1357 14.5934 12.6727 14.5897 12.2312 14.5897C11.7487 14.5897 11.3014 14.5942 10.8646 14.6032C10.4907 14.6098 10.2321 14.7219 10.096 14.9366C9.9597 15.1515 9.96857 15.4337 10.1224 15.7754C11.3536 18.5127 12.47 20.5029 13.7422 22.2289C14.6337 23.4366 15.5278 24.2725 16.5558 24.8594C17.6389 25.479 18.8527 25.7803 20.2664 25.7803C20.4266 25.7803 20.5923 25.7763 20.7594 25.7685C21.5809 25.7285 21.8856 25.4312 21.9242 24.6313C21.9425 24.2226 21.9872 23.7939 22.1881 23.4283C22.315 23.198 22.4332 23.198 22.4721 23.198C22.547 23.198 22.6398 23.2324 22.7395 23.297C22.9183 23.4137 23.0716 23.5701 23.1973 23.7067C23.3156 23.8364 23.4326 23.9675 23.5496 24.0986C23.8023 24.3816 24.0636 24.6742 24.3365 24.9517C24.934 25.5596 25.5921 25.8269 26.348 25.7689H29.1695C29.1755 25.7689 29.1815 25.7686 29.1875 25.7683C29.4687 25.7497 29.7121 25.5937 29.8555 25.3404C30.0332 25.0266 30.0296 24.6262 29.846 24.2691C29.6376 23.8654 29.3673 23.5204 29.1305 23.2364Z" fill="white"/>
</g>
<defs>
<clipPath id="clip0_37_663">
<rect width="20" height="20" fill="white" transform="translate(10 10)"/>
</clipPath>
</defs>
</svg>
