<!-- icon666.com - MILLIONS vector ICONS FREE --><svg viewBox="0 0 512 512" xmlns="http://www.w3.org/2000/svg"><g id="Layer_2" data-name="Layer 2"><g id="Social_Icon" data-name="Social Icon"><g id="User"><circle cx="256" cy="256" fill="#07c" r="256" style="fill: rgb(118, 129, 214);"></circle><g fill="#fff"><path d="m414.75 361.86a25.25 25.25 0 0 1 -5.13 22.22 200 200 0 0 1 -307.24 0 25.25 25.25 0 0 1 -5.13-22.22 163.57 163.57 0 0 1 57.56-89.32 24.77 24.77 0 0 1 30-.43c19 14.13 43.91 22.69 71.15 22.69s52.14-8.56 71.15-22.69a24.77 24.77 0 0 1 30 .43 163.57 163.57 0 0 1 57.64 89.32z" fill="#fff"></path><circle cx="256" cy="169.89" r="91.89" fill="#fff"></circle></g></g></g></g></svg>