<?xml version="1.0" encoding="utf-8"?>
<!-- Generator: Adobe Illustrator 27.8.1, SVG Export Plug-In . SVG Version: 6.00 Build 0)  -->
<svg version="1.1" id="Слой_1" xmlns="http://www.w3.org/2000/svg" xmlns:xlink="http://www.w3.org/1999/xlink" x="0px" y="0px"
	 viewBox="0 0 20 20" style="enable-background:new 0 0 20 20;" xml:space="preserve">
<style type="text/css">
	.st0{fill:#272727;}
</style>
<path class="st0" d="M14.2,11.2c1.2,1,2.1,2.2,2.1,4v3.1H20v-3.1C20,12.9,16.8,11.6,14.2,11.2z M12.7,10c2,0,3.6-1.8,3.6-4.1
	s-1.6-4.1-3.6-4.1c-0.4,0-0.8,0.1-1.2,0.2c0.8,1.1,1.2,2.5,1.2,3.9s-0.4,2.8-1.2,3.9C11.9,9.9,12.3,10,12.7,10z M7.3,10
	c2,0,3.6-1.8,3.6-4.1S9.3,1.7,7.3,1.7S3.7,3.6,3.7,5.9S5.3,10,7.3,10z M7.3,3.8c1,0,1.8,0.9,1.8,2.1S8.3,7.9,7.3,7.9S5.5,7,5.5,5.9
	S6.3,3.8,7.3,3.8z M7.3,11C4.9,11,0,12.4,0,15.1v3.1h14.5v-3.1C14.5,12.4,9.7,11,7.3,11z M12.7,16.2H1.8v-1c0.2-0.7,3-2.1,5.5-2.1
	s5.3,1.3,5.5,2.1v1H12.7z"/>
</svg>
