<?xml version="1.0" encoding="utf-8"?>
<!-- Generator: Adobe Illustrator 27.8.1, SVG Export Plug-In . SVG Version: 6.00 Build 0)  -->
<svg version="1.1" id="Слой_1" xmlns="http://www.w3.org/2000/svg" xmlns:xlink="http://www.w3.org/1999/xlink" x="0px" y="0px"
	 viewBox="0 0 20 20" style="enable-background:new 0 0 20 20;" xml:space="preserve">
<style type="text/css">
	.st0{fill:#272727;}
</style>
<g>
	<path class="st0" d="M4.4,9h2.2v2H4.4V9z M4.4,13h2.2v2H4.4V13z M8.9,9h2.2v2H8.9V9z M8.9,13h2.2v2H8.9V13z M13.3,9h2.2v2h-2.2V9z
		 M13.3,13h2.2v2h-2.2V13z"/>
	<path class="st0" d="M2.2,20h15.6c1.2,0,2.2-0.9,2.2-2V4c0-1.1-1-2-2.2-2h-2.2V0h-2.2v2H6.7V0H4.4v2H2.2C1,2,0,2.9,0,4v14
		C0,19.1,1,20,2.2,20z M17.8,6l0,12H2.2V6H17.8z"/>
</g>
</svg>
