<svg width="16" height="16" viewBox="0 0 16 16" fill="none" xmlns="http://www.w3.org/2000/svg">
<path d="M13.6 16H12C11.4036 16 10.8406 15.784 10.4 15.389C9.95948 15.7839 9.39638 16 8.79999 16H7.19997C6.60359 16 6.04048 15.784 5.59999 15.389C5.1595 15.7839 4.59636 16 3.99997 16H2.39999C1.75884 16 1.15615 15.7503 0.70288 15.297C0.249646 14.8437 0 14.241 0 13.6V8.80003C0 8.15897 0.249646 7.55629 0.702915 7.10298C1.15622 6.64968 1.75891 6.4 2.39999 6.4H3.99997C4.27677 6.4 4.54644 6.44655 4.79998 6.53591V5.59999C4.79998 4.95891 5.04963 4.35622 5.50293 3.90295C5.9562 3.44965 6.55889 3.2 7.19997 3.2H8.79999C9.07676 3.2 9.34642 3.24655 9.59993 3.33595V2.39999C9.59993 1.75891 9.84961 1.15622 10.3029 0.702915C10.7564 0.249646 11.359 0 12 0H13.6C14.241 0 14.8437 0.249646 15.297 0.702915C15.7503 1.15615 16 1.75884 16 2.39999V13.6C16 14.2411 15.7503 14.8438 15.297 15.2971C14.8438 15.7503 14.2411 16 13.6 16ZM11.2 13.6C11.2 13.8137 11.2832 14.0146 11.4343 14.1657C11.5854 14.3167 11.7863 14.3999 12 14.3999H13.6C13.8137 14.3999 14.0146 14.3168 14.1656 14.1657C14.3168 14.0146 14.3999 13.8137 14.3999 13.6V2.39999C14.3999 2.18627 14.3168 1.9854 14.1657 1.83435C14.0146 1.68322 13.8137 1.59998 13.6 1.59998H12C11.7863 1.59998 11.5854 1.68322 11.4342 1.83435C11.2832 1.9854 11.2 2.18627 11.2 2.39999V13.6ZM6.4 13.6C6.4 13.8137 6.48324 14.0146 6.63433 14.1657C6.78542 14.3168 6.98629 14.3999 7.20001 14.3999H8.80003C9.01371 14.3999 9.21458 14.3168 9.36564 14.1657C9.5168 14.0146 9.59997 13.8137 9.59997 13.6V5.59999C9.59997 5.38627 9.5168 5.1854 9.36574 5.03435C9.21458 4.88319 9.01367 4.79998 8.80003 4.79998H7.20001C6.98629 4.79998 6.78542 4.88322 6.63433 5.03428C6.48324 5.18537 6.4 5.38627 6.4 5.59999V13.6ZM2.39999 8.00002C2.18627 8.00002 1.9854 8.08326 1.83431 8.23431C1.68322 8.38544 1.59998 8.58634 1.59998 8.80003V13.6C1.59998 13.8137 1.68322 14.0146 1.83431 14.1657C1.9854 14.3168 2.18627 14.3999 2.39999 14.3999H3.99997C4.21369 14.3999 4.41456 14.3168 4.56562 14.1657C4.71678 14.0146 4.79998 13.8137 4.79998 13.6V8.80003C4.79998 8.58634 4.71678 8.38544 4.56565 8.23435C4.41457 8.08326 4.21366 8.00002 3.99997 8.00002H2.39999Z" fill="#272727"/>
</svg>
