<svg width="16" height="16" viewBox="0 0 16 16" fill="none" xmlns="http://www.w3.org/2000/svg">
<path d="M9.28 13.52C8.49231 14.32 7.58974 15.144 6.5641 16C2.19077 12.36 0 9.216 0 6.56C0 2.576 3.11795 0 6.5641 0C10.0021 0 13.12 2.568 13.1282 6.536L14.8431 4.864L16 6L12.3077 9.6L8.61539 6L9.77231 4.872L11.4872 6.536C11.479 3.64 9.30462 1.6 6.5641 1.6C3.81538 1.6 1.64103 3.656 1.64103 6.56C1.64103 8.432 3.24103 10.912 6.5641 13.872C7.08923 13.4 7.57333 12.944 8.01641 12.504C7.87203 12.2262 7.79617 11.9194 7.79487 11.608C7.79487 11.0776 8.01099 10.5689 8.39568 10.1938C8.78037 9.81871 9.30212 9.608 9.84615 9.608C10.3902 9.608 10.9119 9.81871 11.2966 10.1938C11.6813 10.5689 11.8974 11.0776 11.8974 11.608C11.8972 11.9174 11.823 12.2224 11.6809 12.499C11.5388 12.7756 11.3327 13.0162 11.0787 13.2017C10.8248 13.3872 10.5301 13.5125 10.2179 13.5678C9.90569 13.623 9.58459 13.6067 9.28 13.52Z" fill="#272727"/>
</svg>
